<?xml version="1.0" encoding="UTF-8"?>
<svg xmlns="http://www.w3.org/2000/svg" xmlns:xlink="http://www.w3.org/1999/xlink" width="128px" height="128px" viewBox="0 0 128 128" version="1.1">
<g id="surface1">
<path style=" stroke:none;fill-rule:nonzero;fill:rgb(0%,0%,0%);fill-opacity:1;" d="M 97.542969 90.515625 C 97.667969 90.242188 97.894531 89.964844 98.132812 89.792969 C 98.382812 89.609375 98.726562 89.480469 99.027344 89.445312 C 99.363281 89.40625 99.765625 89.460938 100.082031 89.578125 C 100.445312 89.714844 100.832031 89.972656 101.117188 90.246094 C 101.441406 90.5625 101.746094 91.007812 101.9375 91.425781 C 102.160156 91.902344 102.316406 92.503906 102.375 93.03125 C 102.4375 93.625 102.394531 94.324219 102.273438 94.910156 C 102.140625 95.5625 101.867188 96.285156 101.550781 96.859375 C 101.199219 97.496094 100.683594 98.160156 100.167969 98.65625 C 99.601562 99.199219 98.859375 99.714844 98.167969 100.058594 C 97.414062 100.433594 96.488281 100.71875 95.664062 100.84375 C 94.773438 100.980469 93.722656 100.972656 92.832031 100.832031 C 91.871094 100.683594 90.789062 100.335938 89.90625 99.902344 C 88.957031 99.4375 87.941406 98.730469 87.148438 98.003906 C 86.304688 97.226562 85.453125 96.183594 84.84375 95.1875 C 84.191406 94.125 83.605469 92.792969 83.25 91.582031 C 82.871094 90.296875 82.636719 88.757812 82.597656 87.410156 C 82.558594 85.988281 82.730469 84.347656 83.054688 82.964844 C 83.394531 81.507812 84.007812 79.894531 84.703125 78.589844 C 85.433594 77.214844 86.480469 75.765625 87.527344 74.652344 C 88.628906 73.484375 90.066406 72.328125 91.421875 71.515625 C 92.835938 70.667969 94.589844 69.933594 96.167969 69.515625 C 97.816406 69.082031 99.777344 68.863281 101.472656 68.914062 C 103.246094 68.964844 105.269531 69.324219 106.964844 69.875 C 108.730469 70.449219 110.671875 71.410156 112.230469 72.460938 C 113.851562 73.558594 115.554688 75.089844 116.847656 76.605469 C 118.191406 78.175781 119.5 80.207031 120.40625 82.105469 C 121.34375 84.070312 122.136719 86.484375 122.558594 88.644531 C 122.996094 90.882812 123.167969 93.527344 123.039062 95.808594 C 122.902344 98.167969 122.402344 100.859375 121.691406 103.097656 C 120.957031 105.410156 119.773438 107.945312 118.496094 109.972656 C 117.175781 112.066406 115.355469 114.246094 113.570312 115.894531 C 111.726562 117.597656 109.359375 119.242188 107.164062 120.367188 C 104.902344 121.527344 102.136719 122.480469 99.667969 122.964844 C 97.128906 123.464844 94.136719 123.613281 91.5625 123.386719 C 88.914062 123.148438 85.90625 122.441406 83.410156 121.472656 C 80.84375 120.476562 78.039062 118.910156 75.804688 117.230469 C 73.511719 115.507812 71.125 113.148438 69.332031 110.84375 C 67.488281 108.480469 65.71875 105.460938 64.519531 102.664062 C 63.289062 99.792969 62.292969 96.296875 61.808594 93.183594 C 61.367188 90.707031 60.507812 87.929688 59.46875 85.664062 C 58.464844 83.46875 57.003906 81.105469 55.492188 79.269531 C 54.035156 77.492188 52.105469 75.683594 50.257812 74.378906 C 48.472656 73.117188 46.246094 71.957031 44.210938 71.242188 C 42.25 70.550781 39.898438 70.074219 37.835938 69.960938 C 35.84375 69.851562 33.542969 70.050781 31.597656 70.503906 C 29.722656 70.941406 27.628906 71.75 25.929688 72.703125 C 24.296875 73.621094 22.550781 74.9375 21.203125 76.285156 C 19.90625 77.574219 18.601562 79.269531 17.675781 80.882812 C 16.785156 82.429688 15.984375 84.351562 15.511719 86.09375 C 15.058594 87.757812 14.777344 89.75 14.757812 91.484375 C 14.742188 93.144531 14.957031 95.050781 15.351562 96.65625 C 15.730469 98.179688 16.382812 99.875 17.132812 101.238281 C 17.84375 102.535156 18.84375 103.90625 19.855469 104.949219 C 20.816406 105.9375 22.058594 106.917969 23.230469 107.59375 C 24.339844 108.234375 25.710938 108.785156 26.9375 109.078125 C 28.097656 109.355469 29.472656 109.480469 30.65625 109.40625 C 31.769531 109.339844 33.042969 109.074219 34.09375 108.679688 C 35.082031 108.3125 36.160156 107.726562 37.011719 107.078125 C 37.804688 106.480469 38.625 105.652344 39.230469 104.835938 C 39.789062 104.082031 40.320312 103.117188 40.65625 102.222656 C 40.964844 101.398438 41.195312 100.398438 41.269531 99.515625 C 41.335938 98.703125 41.289062 97.757812 41.132812 96.960938 C 40.988281 96.238281 40.707031 95.429688 40.367188 94.785156 C 40.058594 94.203125 39.609375 93.589844 39.148438 93.140625 C 38.734375 92.734375 38.1875 92.347656 37.675781 92.109375 C 37.21875 91.898438 36.65625 91.742188 36.15625 91.710938 C 35.71875 91.679688 35.207031 91.738281 34.789062 91.878906 C 34.425781 92.003906 34.023438 92.234375 33.734375 92.503906 C 33.476562 92.738281 33.230469 93.078125 33.09375 93.410156 C 32.972656 93.707031 32.90625 94.089844 32.929688 94.414062 C 32.949219 94.71875 33.0625 95.066406 33.21875 95.320312 C 33.378906 95.570312 33.492188 95.921875 33.511719 96.222656 C 33.535156 96.546875 33.46875 96.929688 33.34375 97.226562 C 33.210938 97.558594 32.964844 97.902344 32.707031 98.136719 C 32.417969 98.40625 32.015625 98.632812 31.648438 98.757812 C 31.234375 98.902344 30.71875 98.960938 30.28125 98.929688 C 29.785156 98.894531 29.222656 98.742188 28.765625 98.53125 C 28.25 98.289062 27.707031 97.902344 27.292969 97.5 C 26.832031 97.050781 26.382812 96.433594 26.074219 95.855469 C 25.730469 95.210938 25.453125 94.402344 25.308594 93.675781 C 25.148438 92.882812 25.101562 91.9375 25.171875 91.125 C 25.246094 90.242188 25.476562 89.238281 25.785156 88.414062 C 26.121094 87.519531 26.652344 86.554688 27.210938 85.800781 C 27.8125 84.988281 28.636719 84.160156 29.429688 83.558594 C 30.28125 82.914062 31.359375 82.324219 32.34375 81.957031 C 33.398438 81.566406 34.667969 81.300781 35.785156 81.230469 C 36.96875 81.160156 38.34375 81.285156 39.5 81.5625 C 40.730469 81.855469 42.097656 82.40625 43.207031 83.042969 C 44.382812 83.71875 45.625 84.699219 46.585938 85.6875 C 47.59375 86.734375 48.597656 88.105469 49.308594 89.402344 C 50.054688 90.765625 50.710938 92.457031 51.089844 93.984375 C 51.484375 95.585938 51.699219 97.496094 51.679688 99.152344 C 51.660156 100.890625 51.378906 102.878906 50.929688 104.546875 C 50.457031 106.289062 49.65625 108.210938 48.765625 109.757812 C 47.839844 111.367188 46.535156 113.0625 45.238281 114.355469 C 43.890625 115.703125 42.144531 117.019531 40.507812 117.933594 C 38.8125 118.886719 36.71875 119.695312 34.84375 120.132812 C 32.898438 120.589844 30.597656 120.785156 28.605469 120.675781 C 26.542969 120.5625 24.191406 120.089844 22.226562 119.398438 C 20.195312 118.683594 17.964844 117.519531 16.183594 116.257812 C 14.335938 114.953125 12.40625 113.148438 10.945312 111.371094 C 9.4375 109.53125 7.972656 107.171875 6.96875 104.976562 C 5.933594 102.710938 5.074219 99.933594 4.632812 97.457031 C 4.175781 94.898438 4.023438 91.890625 4.210938 89.296875 C 4.402344 86.621094 5.011719 83.585938 5.851562 81.058594 C 6.71875 78.460938 8.089844 75.617188 9.5625 73.351562 C 11.078125 71.019531 13.160156 68.589844 15.191406 66.765625 C 17.28125 64.886719 19.957031 63.078125 22.433594 61.847656 C 24.976562 60.585938 28.082031 59.558594 30.847656 59.050781 C 33.683594 58.53125 37.019531 58.402344 39.882812 58.691406 C 42.824219 58.988281 46.160156 59.816406 48.921875 60.921875 C 51.152344 61.75 53.832031 62.34375 56.1875 62.519531 C 58.472656 62.6875 61.117188 62.515625 63.359375 62.039062 C 65.53125 61.574219 67.960938 60.695312 69.941406 59.640625 C 71.855469 58.617188 73.914062 57.136719 75.507812 55.613281 C 77.050781 54.144531 78.613281 52.203125 79.734375 50.351562 C 80.820312 48.566406 81.8125 46.339844 82.414062 44.308594 C 82.996094 42.355469 83.386719 40.015625 83.464844 37.96875 C 83.539062 36 83.34375 33.722656 82.925781 31.804688 C 82.527344 29.960938 81.804688 27.90625 80.960938 26.242188 C 80.152344 24.644531 78.996094 22.941406 77.820312 21.632812 C 76.695312 20.382812 75.222656 19.128906 73.824219 18.242188 C 72.492188 17.394531 70.835938 16.640625 69.339844 16.207031 C 67.910156 15.792969 66.210938 15.550781 64.734375 15.5625 C 63.328125 15.570312 61.714844 15.8125 60.363281 16.226562 C 59.082031 16.617188 57.664062 17.277344 56.53125 18.027344 C 55.457031 18.734375 54.328125 19.722656 53.472656 20.714844 C 52.671875 21.648438 51.882812 22.855469 51.347656 23.988281 C 50.847656 25.054688 50.425781 26.363281 50.21875 27.53125 C 50.023438 28.628906 49.960938 29.921875 50.058594 31.03125 C 50.148438 32.066406 50.40625 33.242188 50.765625 34.207031 C 51.097656 35.101562 51.617188 36.074219 52.171875 36.832031 C 52.683594 37.53125 53.382812 38.246094 54.0625 38.753906 C 54.683594 39.222656 55.476562 39.652344 56.199219 39.902344 C 56.859375 40.132812 57.652344 40.277344 58.347656 40.285156 C 58.972656 40.289062 59.695312 40.179688 60.289062 39.980469 C 60.824219 39.796875 61.410156 39.488281 61.863281 39.132812 C 62.261719 38.816406 62.667969 38.371094 62.945312 37.929688 C 63.1875 37.539062 63.394531 37.035156 63.488281 36.578125 C 63.570312 36.175781 63.585938 35.691406 63.515625 35.289062 C 63.449219 34.933594 63.296875 34.535156 63.097656 34.242188 C 62.917969 33.980469 62.640625 33.726562 62.367188 33.585938 C 62.109375 33.457031 61.769531 33.382812 61.488281 33.40625 C 61.203125 33.425781 60.863281 33.355469 60.609375 33.222656 C 60.332031 33.082031 60.058594 32.828125 59.875 32.566406 C 59.675781 32.273438 59.523438 31.875 59.457031 31.523438 C 59.386719 31.117188 59.402344 30.632812 59.484375 30.230469 C 59.578125 29.773438 59.785156 29.273438 60.027344 28.882812 C 60.304688 28.4375 60.710938 27.996094 61.113281 27.679688 C 61.5625 27.324219 62.148438 27.011719 62.683594 26.832031 C 63.277344 26.628906 64 26.519531 64.628906 26.527344 C 65.320312 26.53125 66.117188 26.675781 66.773438 26.90625 C 67.5 27.15625 68.289062 27.585938 68.910156 28.054688 C 69.589844 28.566406 70.289062 29.28125 70.800781 29.980469 C 71.359375 30.734375 71.875 31.710938 72.207031 32.605469 C 72.566406 33.570312 72.824219 34.746094 72.914062 35.777344 C 73.011719 36.886719 72.949219 38.179688 72.753906 39.277344 C 72.546875 40.449219 72.125 41.757812 71.625 42.820312 C 71.089844 43.953125 70.300781 45.160156 69.5 46.097656 C 68.648438 47.085938 67.515625 48.078125 66.441406 48.785156 C 65.308594 49.53125 63.890625 50.191406 62.609375 50.585938 C 61.261719 51 59.644531 51.238281 58.238281 51.25 C 56.761719 51.257812 55.0625 51.015625 53.636719 50.601562 C 52.136719 50.167969 50.480469 49.414062 49.148438 48.570312 C 47.75 47.683594 46.277344 46.425781 45.152344 45.175781 C 43.976562 43.867188 42.820312 42.164062 42.011719 40.570312 C 41.167969 38.90625 40.445312 36.851562 40.046875 35.007812 C 39.628906 33.085938 39.433594 30.808594 39.507812 28.839844 C 39.585938 26.792969 39.976562 24.453125 40.558594 22.5 C 41.164062 20.472656 42.152344 18.242188 43.238281 16.457031 C 44.359375 14.605469 45.921875 12.664062 47.464844 11.195312 C 49.058594 9.671875 51.117188 8.191406 53.03125 7.171875 C 55.011719 6.117188 57.441406 5.234375 59.613281 4.773438 C 61.855469 4.296875 64.503906 4.121094 66.785156 4.289062 C 69.140625 4.464844 71.820312 5.058594 74.050781 5.886719 C 76.347656 6.742188 78.867188 8.105469 80.875 9.578125 C 82.945312 11.089844 85.101562 13.171875 86.730469 15.214844 C 88.40625 17.316406 90.023438 20.007812 91.125 22.503906 C 92.257812 25.070312 93.183594 28.207031 93.648438 31.003906 C 94.125 33.875 94.257812 37.253906 94.011719 40.160156 C 93.765625 43.144531 93.042969 46.53125 92.074219 49.34375 C 91.078125 52.226562 89.515625 55.378906 87.847656 57.882812 C 86.136719 60.457031 83.796875 63.128906 81.519531 65.132812 C 79.730469 66.78125 77.910156 68.964844 76.589844 71.054688 C 75.3125 73.082031 74.128906 75.617188 73.394531 77.933594 C 72.683594 80.171875 72.183594 82.859375 72.050781 85.21875 C 71.917969 87.5 72.09375 90.144531 72.527344 92.382812 C 72.949219 94.542969 73.742188 96.960938 74.679688 98.925781 C 75.585938 100.820312 76.898438 102.851562 78.238281 104.425781 C 79.53125 105.9375 81.234375 107.46875 82.855469 108.566406 C 84.414062 109.621094 86.355469 110.578125 88.121094 111.152344 C 89.816406 111.703125 91.84375 112.0625 93.613281 112.117188 C 95.3125 112.164062 97.269531 111.945312 98.917969 111.511719 C 100.496094 111.097656 102.25 110.359375 103.667969 109.511719 C 105.019531 108.699219 106.457031 107.546875 107.558594 106.378906 C 108.609375 105.265625 109.652344 103.8125 110.386719 102.441406 C 111.082031 101.136719 111.691406 99.519531 112.03125 98.0625 C 112.355469 96.683594 112.527344 95.039062 112.488281 93.617188 C 112.453125 92.273438 112.214844 90.730469 111.835938 89.445312 C 111.480469 88.234375 110.898438 86.902344 110.246094 85.84375 C 109.632812 84.847656 108.78125 83.800781 107.9375 83.023438 C 107.148438 82.296875 106.128906 81.59375 105.179688 81.128906 C 104.296875 80.695312 103.214844 80.347656 102.253906 80.195312 C 101.363281 80.054688 100.316406 80.046875 99.421875 80.183594 C 98.601562 80.308594 97.671875 80.597656 96.917969 80.96875 C 96.226562 81.3125 95.484375 81.828125 94.917969 82.371094 C 94.40625 82.867188 93.886719 83.53125 93.539062 84.167969 C 93.21875 84.746094 92.945312 85.46875 92.8125 86.121094 C 92.691406 86.707031 92.652344 87.402344 92.714844 87.996094 C 92.769531 88.527344 92.925781 89.125 93.148438 89.601562 C 93.34375 90.019531 93.644531 90.464844 93.96875 90.78125 C 94.253906 91.058594 94.640625 91.3125 95.003906 91.449219 C 95.324219 91.566406 95.722656 91.625 96.058594 91.585938 C 96.359375 91.546875 96.703125 91.417969 96.957031 91.238281 C 97.191406 91.066406 97.417969 90.789062 97.542969 90.515625 Z M 97.542969 90.515625 "/>
</g>
</svg>
