<svg width="128" height="128" xmlns="http://www.w3.org/2000/svg" xmlns:xlink="http://www.w3.org/1999/xlink" overflow="hidden"><defs><clipPath id="clip0"><rect x="0" y="0" width="128" height="128"/></clipPath></defs><g clip-path="url(#clip0)"><path d="M97.543 90.5156C97.668 90.2422 97.8945 89.9648 98.1328 89.793 98.3828 89.6094 98.7266 89.4805 99.0273 89.4453 99.3633 89.4062 99.7656 89.4609 100.082 89.5781 100.445 89.7148 100.832 89.9727 101.117 90.2461 101.441 90.5625 101.746 91.0078 101.938 91.4258 102.16 91.9023 102.316 92.5039 102.375 93.0312 102.438 93.625 102.395 94.3242 102.273 94.9102 102.141 95.5625 101.867 96.2852 101.551 96.8594 101.199 97.4961 100.684 98.1602 100.168 98.6562 99.6016 99.1992 98.8594 99.7148 98.168 100.059 97.4141 100.434 96.4883 100.719 95.6641 100.844 94.7734 100.98 93.7227 100.973 92.832 100.832 91.8711 100.684 90.7891 100.336 89.9062 99.9023 88.957 99.4375 87.9414 98.7305 87.1484 98.0039 86.3047 97.2266 85.4531 96.1836 84.8438 95.1875 84.1914 94.125 83.6055 92.793 83.25 91.582 82.8711 90.2969 82.6367 88.7578 82.5977 87.4102 82.5586 85.9883 82.7305 84.3477 83.0547 82.9648 83.3945 81.5078 84.0078 79.8945 84.7031 78.5898 85.4336 77.2148 86.4805 75.7656 87.5273 74.6523 88.6289 73.4844 90.0664 72.3281 91.4219 71.5156 92.8359 70.668 94.5898 69.9336 96.168 69.5156 97.8164 69.082 99.7773 68.8633 101.473 68.9141 103.246 68.9648 105.27 69.3242 106.965 69.875 108.73 70.4492 110.672 71.4102 112.23 72.4609 113.852 73.5586 115.555 75.0898 116.848 76.6055 118.191 78.1758 119.5 80.207 120.406 82.1055 121.344 84.0703 122.137 86.4844 122.559 88.6445 122.996 90.8828 123.168 93.5273 123.039 95.8086 122.902 98.168 122.402 100.859 121.691 103.098 120.957 105.41 119.773 107.945 118.496 109.973 117.176 112.066 115.355 114.246 113.57 115.895 111.727 117.598 109.359 119.242 107.164 120.367 104.902 121.527 102.137 122.48 99.668 122.965 97.1289 123.465 94.1367 123.613 91.5625 123.387 88.9141 123.148 85.9062 122.441 83.4102 121.473 80.8438 120.477 78.0391 118.91 75.8047 117.23 73.5117 115.508 71.125 113.148 69.332 110.844 67.4883 108.48 65.7188 105.461 64.5195 102.664 63.2891 99.793 62.293 96.2969 61.8086 93.1836 61.3672 90.707 60.5078 87.9297 59.4688 85.6641 58.4648 83.4688 57.0039 81.1055 55.4922 79.2695 54.0352 77.4922 52.1055 75.6836 50.2578 74.3789 48.4727 73.1172 46.2461 71.957 44.2109 71.2422 42.25 70.5508 39.8984 70.0742 37.8359 69.9609 35.8438 69.8516 33.543 70.0508 31.5977 70.5039 29.7227 70.9414 27.6289 71.75 25.9297 72.7031 24.2969 73.6211 22.5508 74.9375 21.2031 76.2852 19.9062 77.5742 18.6016 79.2695 17.6758 80.8828 16.7852 82.4297 15.9844 84.3516 15.5117 86.0938 15.0586 87.7578 14.7773 89.75 14.7578 91.4844 14.7422 93.1445 14.957 95.0508 15.3516 96.6562 15.7305 98.1797 16.3828 99.875 17.1328 101.238 17.8438 102.535 18.8438 103.906 19.8555 104.949 20.8164 105.938 22.0586 106.918 23.2305 107.594 24.3398 108.234 25.7109 108.785 26.9375 109.078 28.0977 109.355 29.4727 109.48 30.6562 109.406 31.7695 109.34 33.043 109.074 34.0938 108.68 35.082 108.312 36.1602 107.727 37.0117 107.078 37.8047 106.48 38.625 105.652 39.2305 104.836 39.7891 104.082 40.3203 103.117 40.6562 102.223 40.9648 101.398 41.1953 100.398 41.2695 99.5156 41.3359 98.7031 41.2891 97.7578 41.1328 96.9609 40.9883 96.2383 40.707 95.4297 40.3672 94.7852 40.0586 94.2031 39.6094 93.5898 39.1484 93.1406 38.7344 92.7344 38.1875 92.3477 37.6758 92.1094 37.2188 91.8984 36.6562 91.7422 36.1562 91.7109 35.7188 91.6797 35.207 91.7383 34.7891 91.8789 34.4258 92.0039 34.0234 92.2344 33.7344 92.5039 33.4766 92.7383 33.2305 93.0781 33.0938 93.4102 32.9727 93.707 32.9062 94.0898 32.9297 94.4141 32.9492 94.7188 33.0625 95.0664 33.2188 95.3203 33.3789 95.5703 33.4922 95.9219 33.5117 96.2227 33.5352 96.5469 33.4688 96.9297 33.3438 97.2266 33.2109 97.5586 32.9648 97.9023 32.707 98.1367 32.418 98.4062 32.0156 98.6328 31.6484 98.7578 31.2344 98.9023 30.7188 98.9609 30.2812 98.9297 29.7852 98.8945 29.2227 98.7422 28.7656 98.5312 28.25 98.2891 27.707 97.9023 27.293 97.5 26.832 97.0508 26.3828 96.4336 26.0742 95.8555 25.7305 95.2109 25.4531 94.4023 25.3086 93.6758 25.1484 92.8828 25.1016 91.9375 25.1719 91.125 25.2461 90.2422 25.4766 89.2383 25.7852 88.4141 26.1211 87.5195 26.6523 86.5547 27.2109 85.8008 27.8125 84.9883 28.6367 84.1602 29.4297 83.5586 30.2812 82.9141 31.3594 82.3242 32.3438 81.957 33.3984 81.5664 34.668 81.3008 35.7852 81.2305 36.9688 81.1602 38.3438 81.2852 39.5 81.5625 40.7305 81.8555 42.0977 82.4062 43.207 83.043 44.3828 83.7188 45.625 84.6992 46.5859 85.6875 47.5938 86.7344 48.5977 88.1055 49.3086 89.4023 50.0547 90.7656 50.7109 92.457 51.0898 93.9844 51.4844 95.5859 51.6992 97.4961 51.6797 99.1523 51.6602 100.891 51.3789 102.879 50.9297 104.547 50.457 106.289 49.6562 108.211 48.7656 109.758 47.8398 111.367 46.5352 113.062 45.2383 114.355 43.8906 115.703 42.1445 117.02 40.5078 117.934 38.8125 118.887 36.7188 119.695 34.8438 120.133 32.8984 120.59 30.5977 120.785 28.6055 120.676 26.543 120.562 24.1914 120.09 22.2266 119.398 20.1953 118.684 17.9648 117.52 16.1836 116.258 14.3359 114.953 12.4062 113.148 10.9453 111.371 9.4375 109.531 7.97266 107.172 6.96875 104.977 5.93359 102.711 5.07422 99.9336 4.63281 97.457 4.17578 94.8984 4.02344 91.8906 4.21094 89.2969 4.40234 86.6211 5.01172 83.5859 5.85156 81.0586 6.71875 78.4609 8.08984 75.6172 9.5625 73.3516 11.0781 71.0195 13.1602 68.5898 15.1914 66.7656 17.2812 64.8867 19.957 63.0781 22.4336 61.8477 24.9766 60.5859 28.082 59.5586 30.8477 59.0508 33.6836 58.5312 37.0195 58.4023 39.8828 58.6914 42.8242 58.9883 46.1602 59.8164 48.9219 60.9219 51.1523 61.75 53.832 62.3438 56.1875 62.5195 58.4727 62.6875 61.1172 62.5156 63.3594 62.0391 65.5312 61.5742 67.9609 60.6953 69.9414 59.6406 71.8555 58.6172 73.9141 57.1367 75.5078 55.6133 77.0508 54.1445 78.6133 52.2031 79.7344 50.3516 80.8203 48.5664 81.8125 46.3398 82.4141 44.3086 82.9961 42.3555 83.3867 40.0156 83.4648 37.9688 83.5391 36 83.3438 33.7227 82.9258 31.8047 82.5273 29.9609 81.8047 27.9062 80.9609 26.2422 80.1523 24.6445 78.9961 22.9414 77.8203 21.6328 76.6953 20.3828 75.2227 19.1289 73.8242 18.2422 72.4922 17.3945 70.8359 16.6406 69.3398 16.207 67.9102 15.793 66.2109 15.5508 64.7344 15.5625 63.3281 15.5703 61.7148 15.8125 60.3633 16.2266 59.082 16.6172 57.6641 17.2773 56.5312 18.0273 55.457 18.7344 54.3281 19.7227 53.4727 20.7148 52.6719 21.6484 51.8828 22.8555 51.3477 23.9883 50.8477 25.0547 50.4258 26.3633 50.2188 27.5312 50.0234 28.6289 49.9609 29.9219 50.0586 31.0312 50.1484 32.0664 50.4062 33.2422 50.7656 34.207 51.0977 35.1016 51.6172 36.0742 52.1719 36.832 52.6836 37.5312 53.3828 38.2461 54.0625 38.7539 54.6836 39.2227 55.4766 39.6523 56.1992 39.9023 56.8594 40.1328 57.6523 40.2773 58.3477 40.2852 58.9727 40.2891 59.6953 40.1797 60.2891 39.9805 60.8242 39.7969 61.4102 39.4883 61.8633 39.1328 62.2617 38.8164 62.668 38.3711 62.9453 37.9297 63.1875 37.5391 63.3945 37.0352 63.4883 36.5781 63.5703 36.1758 63.5859 35.6914 63.5156 35.2891 63.4492 34.9336 63.2969 34.5352 63.0977 34.2422 62.918 33.9805 62.6406 33.7266 62.3672 33.5859 62.1094 33.457 61.7695 33.3828 61.4883 33.4062 61.2031 33.4258 60.8633 33.3555 60.6094 33.2227 60.332 33.082 60.0586 32.8281 59.875 32.5664 59.6758 32.2734 59.5234 31.875 59.457 31.5234 59.3867 31.1172 59.4023 30.6328 59.4844 30.2305 59.5781 29.7734 59.7852 29.2734 60.0273 28.8828 60.3047 28.4375 60.7109 27.9961 61.1133 27.6797 61.5625 27.3242 62.1484 27.0117 62.6836 26.832 63.2773 26.6289 64 26.5195 64.6289 26.5273 65.3203 26.5312 66.1172 26.6758 66.7734 26.9062 67.5 27.1562 68.2891 27.5859 68.9102 28.0547 69.5898 28.5664 70.2891 29.2812 70.8008 29.9805 71.3594 30.7344 71.875 31.7109 72.207 32.6055 72.5664 33.5703 72.8242 34.7461 72.9141 35.7773 73.0117 36.8867 72.9492 38.1797 72.7539 39.2773 72.5469 40.4492 72.125 41.7578 71.625 42.8203 71.0898 43.9531 70.3008 45.1602 69.5 46.0977 68.6484 47.0859 67.5156 48.0781 66.4414 48.7852 65.3086 49.5312 63.8906 50.1914 62.6094 50.5859 61.2617 51 59.6445 51.2383 58.2383 51.25 56.7617 51.2578 55.0625 51.0156 53.6367 50.6016 52.1367 50.168 50.4805 49.4141 49.1484 48.5703 47.75 47.6836 46.2773 46.4258 45.1523 45.1758 43.9766 43.8672 42.8203 42.1641 42.0117 40.5703 41.168 38.9062 40.4453 36.8516 40.0469 35.0078 39.6289 33.0859 39.4336 30.8086 39.5078 28.8398 39.5859 26.793 39.9766 24.4531 40.5586 22.5 41.1641 20.4727 42.1523 18.2422 43.2383 16.457 44.3594 14.6055 45.9219 12.6641 47.4648 11.1953 49.0586 9.67188 51.1172 8.19141 53.0312 7.17188 55.0117 6.11719 57.4414 5.23438 59.6133 4.77344 61.8555 4.29688 64.5039 4.12109 66.7852 4.28906 69.1406 4.46484 71.8203 5.05859 74.0508 5.88672 76.3477 6.74219 78.8672 8.10547 80.875 9.57812 82.9453 11.0898 85.1016 13.1719 86.7305 15.2148 88.4062 17.3164 90.0234 20.0078 91.125 22.5039 92.2578 25.0703 93.1836 28.207 93.6484 31.0039 94.125 33.875 94.2578 37.2539 94.0117 40.1602 93.7656 43.1445 93.043 46.5312 92.0742 49.3438 91.0781 52.2266 89.5156 55.3789 87.8477 57.8828 86.1367 60.457 83.7969 63.1289 81.5195 65.1328 79.7305 66.7812 77.9102 68.9648 76.5898 71.0547 75.3125 73.082 74.1289 75.6172 73.3945 77.9336 72.6836 80.1719 72.1836 82.8594 72.0508 85.2188 71.918 87.5 72.0938 90.1445 72.5273 92.3828 72.9492 94.543 73.7422 96.9609 74.6797 98.9258 75.5859 100.82 76.8984 102.852 78.2383 104.426 79.5312 105.938 81.2344 107.469 82.8555 108.566 84.4141 109.621 86.3555 110.578 88.1211 111.152 89.8164 111.703 91.8438 112.062 93.6133 112.117 95.3125 112.164 97.2695 111.945 98.918 111.512 100.496 111.098 102.25 110.359 103.668 109.512 105.02 108.699 106.457 107.547 107.559 106.379 108.609 105.266 109.652 103.812 110.387 102.441 111.082 101.137 111.691 99.5195 112.031 98.0625 112.355 96.6836 112.527 95.0391 112.488 93.6172 112.453 92.2734 112.215 90.7305 111.836 89.4453 111.48 88.2344 110.898 86.9023 110.246 85.8438 109.633 84.8477 108.781 83.8008 107.938 83.0234 107.148 82.2969 106.129 81.5938 105.18 81.1289 104.297 80.6953 103.215 80.3477 102.254 80.1953 101.363 80.0547 100.316 80.0469 99.4219 80.1836 98.6016 80.3086 97.6719 80.5977 96.918 80.9688 96.2266 81.3125 95.4844 81.8281 94.918 82.3711 94.4062 82.8672 93.8867 83.5312 93.5391 84.168 93.2188 84.7461 92.9453 85.4688 92.8125 86.1211 92.6914 86.707 92.6523 87.4023 92.7148 87.9961 92.7695 88.5273 92.9258 89.125 93.1484 89.6016 93.3438 90.0195 93.6445 90.4648 93.9688 90.7812 94.2539 91.0586 94.6406 91.3125 95.0039 91.4492 95.3242 91.5664 95.7227 91.625 96.0586 91.5859 96.3594 91.5469 96.7031 91.418 96.957 91.2383 97.1914 91.0664 97.418 90.7891 97.543 90.5156Z" fill="#FFFFFF"/></g></svg>